<svg width="534" height="1045" viewBox="0 0 534 1045" fill="none" xmlns="http://www.w3.org/2000/svg">
<g opacity="0.5">
<path opacity="0.0344828" d="M129.925 801.632C134.833 807.481 142.231 811.106 151.956 812.565C161.691 814.025 173.694 813.303 187.692 810.505C215.686 804.909 251.451 791.056 292.569 770.138C374.791 728.31 478.219 658.337 583.344 570.127C688.469 481.916 775.338 392.211 830.809 318.501C858.549 281.64 878.403 248.824 888.774 222.227C893.96 208.927 896.756 197.232 897.008 187.392C897.261 177.561 894.975 169.645 890.068 163.797C885.161 157.949 877.762 154.324 868.037 152.865C858.302 151.405 846.299 152.127 832.301 154.925C804.307 160.52 768.542 174.374 727.424 195.292C645.202 237.12 541.774 307.093 436.649 395.303C331.524 483.513 244.655 573.219 189.184 646.928C161.444 683.79 141.59 716.605 131.219 743.203C126.033 756.502 123.237 768.198 122.985 778.038C122.732 787.869 125.018 795.784 129.925 801.632Z" stroke="#2B2C3B" stroke-width="2"/>
<path opacity="0.0689655" d="M159.168 837.517C164.567 842.916 172.252 845.883 182.068 846.488C191.893 847.094 203.787 845.329 217.488 841.321C244.889 833.307 279.31 816.39 318.449 791.968C396.712 743.132 493.648 664.411 590.684 567.375C687.721 470.338 766.442 373.402 815.277 295.139C839.699 256 856.617 221.579 864.631 194.178C868.638 180.478 870.404 168.583 869.798 158.759C869.192 148.943 866.225 141.257 860.827 135.859C855.429 130.46 847.743 127.493 837.927 126.888C828.103 126.282 816.208 128.048 802.507 132.055C775.107 140.069 740.686 156.986 701.547 181.409C623.284 230.244 526.348 308.965 429.311 406.001C332.274 503.038 253.554 599.974 204.718 678.237C180.296 717.376 163.379 751.797 155.364 779.198C151.357 792.898 149.592 804.793 150.198 814.617C150.803 824.433 153.77 832.119 159.168 837.517Z" stroke="#2B2C3B" stroke-width="2"/>
<path opacity="0.103448" d="M191.083 870.727C196.931 875.634 204.846 877.919 214.678 877.667C224.517 877.415 236.213 874.619 249.512 869.433C276.11 859.061 308.926 839.208 345.787 811.468C419.496 755.997 509.202 669.128 597.412 564.003C685.622 458.878 755.595 355.45 797.424 273.228C818.341 232.11 832.195 196.345 837.79 168.35C840.588 154.353 841.31 142.349 839.85 132.615C838.392 122.889 834.766 115.491 828.918 110.584C823.07 105.677 815.155 103.391 805.323 103.644C795.483 103.896 783.788 106.692 770.489 111.878C743.891 122.249 711.075 142.103 674.214 169.843C600.504 225.314 510.799 312.183 422.588 417.308C334.378 522.433 264.406 625.861 222.577 708.083C201.659 749.201 187.806 784.966 182.21 812.96C179.413 826.958 178.69 838.961 180.15 848.695C181.609 858.421 185.235 865.819 191.083 870.727Z" stroke="#2B2C3B" stroke-width="2"/>
<path opacity="0.137931" d="M225.42 901.043C231.673 905.421 239.757 907.009 249.529 905.9C259.31 904.791 270.717 900.987 283.514 894.662C309.106 882.011 340.067 859.373 374.37 828.526C442.965 766.842 524.758 672.485 603.47 560.072C682.182 447.659 742.874 338.526 777.378 252.972C794.632 210.187 805.316 173.351 808.45 144.975C810.017 130.787 809.691 118.766 807.388 109.196C805.087 99.6345 800.83 92.5806 794.577 88.2018C788.323 83.8229 780.239 82.2358 770.467 83.3439C760.686 84.4531 749.279 88.2574 736.483 94.5828C710.89 107.233 679.929 129.871 645.626 160.718C577.032 222.402 495.239 316.76 416.526 429.172C337.814 541.585 277.122 650.718 242.619 736.273C225.364 779.057 214.681 815.894 211.546 844.269C209.979 858.458 210.306 870.478 212.609 880.048C214.909 889.61 219.166 896.664 225.42 901.043Z" stroke="#2B2C3B" stroke-width="2"/>
<path opacity="0.172414" d="M261.929 928.265C268.541 932.082 276.733 932.959 286.371 931.003C296.018 929.046 307.05 924.262 319.247 916.845C343.639 902.013 372.509 876.762 403.993 843.043C466.95 775.615 540.208 674.488 608.824 555.643C677.439 436.797 728.389 322.79 755.304 234.554C768.764 190.428 776.196 152.801 776.846 124.26C777.17 109.989 775.797 98.043 772.669 88.7102C769.544 79.3854 764.689 72.7294 758.077 68.9122C751.466 65.0951 743.274 64.2185 733.636 66.1742C723.989 68.1315 712.957 72.9156 700.76 80.3322C676.367 95.1649 647.498 120.415 616.013 154.135C553.056 221.562 479.798 322.689 411.183 441.535C342.567 560.38 291.618 674.387 264.703 762.623C251.242 806.749 243.81 844.376 243.161 872.917C242.836 887.188 244.209 899.134 247.337 908.467C250.463 917.792 255.318 924.448 261.929 928.265Z" stroke="#2B2C3B" stroke-width="2"/>
<path opacity="0.206897" d="M300.32 952.222C307.239 955.448 315.476 955.608 324.907 952.819C334.346 950.029 344.92 944.301 356.423 935.85C379.431 918.948 405.99 891.277 434.415 854.942C491.256 782.284 555.422 675.157 613.418 550.783C671.414 426.41 712.234 308.397 731.356 218.15C740.919 173.019 745.044 134.887 743.203 106.398C742.283 92.1534 739.874 80.3723 735.944 71.3477C732.018 62.3308 726.601 56.1232 719.682 52.8968C712.763 49.6704 704.526 49.5112 695.095 52.2994C685.656 55.09 675.082 60.8174 663.578 69.2688C640.571 86.1711 614.012 113.841 585.587 150.177C528.746 222.835 464.58 329.962 406.584 454.335C348.588 578.709 307.768 696.722 288.646 786.968C279.083 832.1 274.958 870.231 276.799 898.72C277.719 912.965 280.128 924.746 284.058 933.771C287.984 942.788 293.401 948.995 300.32 952.222Z" stroke="#2B2C3B" stroke-width="2"/>
<path opacity="0.241379" d="M340.306 972.762C347.48 975.373 355.7 974.813 364.852 971.214C374.012 967.611 384.046 960.984 394.77 951.562C416.216 932.719 440.262 902.839 465.413 864.165C515.705 786.829 570.29 674.517 617.225 545.563C664.161 416.608 694.54 295.486 705.724 203.916C711.317 158.123 712.103 119.777 707.786 91.557C705.627 77.4464 702.201 65.9201 697.5 57.2723C692.802 48.6319 686.865 42.92 679.691 40.309C672.517 37.6979 664.298 38.2571 655.146 41.8568C645.986 45.4594 635.952 52.0865 625.228 61.5084C603.782 80.3515 579.735 110.231 554.585 148.906C504.293 226.241 449.708 338.553 402.772 467.508C355.837 596.463 325.458 717.585 314.274 809.154C308.681 854.947 307.895 893.293 312.212 921.514C314.37 935.624 317.797 947.15 322.498 955.798C327.195 964.439 333.132 970.15 340.306 972.762Z" stroke="#2B2C3B" stroke-width="2"/>
<path opacity="0.275862" d="M381.586 989.742C388.961 991.718 397.1 990.444 405.904 986.061C414.715 981.673 424.133 974.197 433.995 963.876C453.717 943.236 475.068 911.374 496.752 870.654C540.113 789.23 584.701 672.588 620.219 540.033C655.737 407.479 675.443 284.17 678.604 191.974C680.185 145.868 677.625 107.599 670.866 79.8625C667.486 65.9938 663.067 54.8099 657.63 46.6048C652.198 38.4067 645.786 33.234 638.411 31.2581C631.037 29.2822 622.898 30.5557 614.094 34.9393C605.283 39.3266 595.865 46.803 586.003 57.1237C566.281 77.7642 544.93 109.626 523.246 150.346C479.885 231.77 435.297 348.412 399.779 480.967C364.261 613.521 344.555 736.83 341.394 829.026C339.813 875.132 342.372 913.401 349.132 941.137C352.512 955.006 356.93 966.19 362.368 974.395C367.8 982.593 374.212 987.766 381.586 989.742Z" stroke="#2B2C3B" stroke-width="2"/>
<path opacity="0.310345" d="M423.844 1003.08C431.362 1004.4 439.36 1002.42 447.748 997.29C456.143 992.151 464.874 983.882 473.799 972.741C491.647 950.46 510.14 916.859 528.192 874.404C564.291 789.511 598.544 669.427 622.374 534.281C646.204 399.135 655.088 274.577 650.201 182.457C647.758 136.389 641.873 98.4886 632.721 71.4468C628.145 57.9254 622.769 47.1692 616.638 39.4692C610.511 31.7757 603.673 27.1816 596.154 25.8559C588.636 24.5302 580.638 26.5083 572.25 31.6425C563.855 36.7811 555.124 45.0499 546.2 56.1908C528.351 78.4717 509.859 112.073 491.806 154.528C455.707 239.421 421.455 359.505 397.625 494.651C373.795 629.797 364.911 754.355 369.797 846.475C372.241 892.544 378.126 930.443 387.277 957.485C391.853 971.007 397.229 981.763 403.361 989.463C409.487 997.156 416.326 1001.75 423.844 1003.08Z" stroke="#2B2C3B" stroke-width="2"/>
<path opacity="0.344828" d="M466.755 1012.7C474.36 1013.36 482.155 1010.69 490.064 1004.85C497.979 998.998 505.956 989.999 513.876 978.123C529.714 954.371 545.208 919.286 559.492 875.42C588.054 787.703 611.71 665.09 623.671 528.382C635.631 391.673 633.626 266.816 620.729 175.472C614.28 129.791 605.114 92.5486 593.64 66.4074C587.903 53.3362 581.61 43.0895 574.831 35.9532C568.057 28.823 560.844 24.8423 553.239 24.177C545.634 23.5116 537.839 26.1792 529.93 32.0249C522.015 37.8756 514.038 46.8739 506.118 58.7502C490.28 82.502 474.786 117.587 460.502 161.454C431.94 249.17 408.284 371.783 396.323 508.491C384.363 645.2 386.368 770.058 399.265 861.402C405.714 907.082 414.88 944.325 426.354 970.466C432.091 983.537 438.384 993.784 445.163 1000.92C451.937 1008.05 459.15 1012.03 466.755 1012.7Z" stroke="#2B2C3B" stroke-width="2"/>
<path opacity="0.37931" d="M509.999 1018.55C517.633 1018.55 525.166 1015.22 532.535 1008.7C539.91 1002.19 547.072 992.526 553.927 980.005C567.635 954.963 580.012 918.661 590.418 873.716C611.227 783.844 624.107 659.636 624.107 522.405C624.107 385.175 611.227 260.967 590.418 171.095C580.012 126.15 567.635 89.8481 553.927 64.8063C547.072 52.285 539.91 42.6257 532.535 36.1074C525.166 29.5946 517.633 26.2578 509.999 26.2578C502.364 26.2578 494.832 29.5946 487.463 36.1074C480.087 42.6257 472.925 52.285 466.071 64.8063C452.362 89.8481 439.985 126.15 429.579 171.095C408.77 260.967 395.891 385.175 395.891 522.405C395.891 659.636 408.77 783.844 429.579 873.716C439.985 918.661 452.362 954.963 466.071 980.005C472.925 992.526 480.087 1002.19 487.463 1008.7C494.832 1015.22 502.364 1018.55 509.999 1018.55Z" stroke="#2B2C3B" stroke-width="2"/>
<path opacity="0.413793" d="M553.241 1020.64C560.847 1019.97 568.06 1015.99 574.833 1008.86C581.613 1001.73 587.906 991.48 593.643 978.409C605.116 952.268 614.282 915.025 620.732 869.345C633.628 778.001 635.634 653.143 623.673 516.435C611.713 379.726 588.056 257.114 559.494 169.397C545.21 125.53 529.716 90.4451 513.878 66.6933C505.958 54.817 497.981 45.8188 490.066 39.9681C482.157 34.1223 474.362 31.4547 466.757 32.1201C459.152 32.7855 451.939 36.7661 445.165 43.8964C438.386 51.0327 432.093 61.2794 426.356 74.3505C414.882 100.492 405.717 137.735 399.267 183.415C386.37 274.759 384.365 399.616 396.325 536.325C408.286 673.034 431.942 795.646 460.505 883.363C474.788 927.229 490.282 962.314 506.121 986.066C514.04 997.943 522.017 1006.94 529.933 1012.79C537.841 1018.64 545.636 1021.3 553.241 1020.64Z" stroke="#2B2C3B" stroke-width="2"/>
<path opacity="0.448276" d="M596.156 1018.96C603.674 1017.63 610.513 1013.04 616.639 1005.35C622.771 997.646 628.147 986.889 632.723 973.368C641.874 946.326 647.759 908.426 650.203 862.358C655.089 770.237 646.205 645.68 622.375 510.534C598.545 375.388 564.293 255.304 528.194 170.41C510.141 127.956 491.649 94.3545 473.8 72.0735C464.875 60.9326 456.145 52.6639 447.749 47.5253C439.361 42.3911 431.364 40.413 423.845 41.7387C416.327 43.0644 409.488 47.6585 403.362 55.352C397.231 63.052 391.855 73.8082 387.279 87.3296C378.127 114.371 372.242 152.271 369.798 198.34C364.912 290.46 373.796 415.017 397.626 550.163C421.456 685.309 455.709 805.394 491.807 890.287C509.86 932.742 528.353 966.343 546.201 988.624C555.126 999.765 563.856 1008.03 572.252 1013.17C580.64 1018.31 588.637 1020.28 596.156 1018.96Z" stroke="#2B2C3B" stroke-width="2"/>
<path opacity="0.482759" d="M638.41 1013.56C645.784 1011.58 652.197 1006.41 657.629 998.209C663.066 990.004 667.484 978.82 670.864 964.952C677.624 937.215 680.184 898.946 678.603 852.84C675.442 760.644 655.736 637.336 620.218 504.781C584.7 372.226 540.111 255.584 496.751 174.16C475.067 133.44 453.716 101.578 433.994 80.9378C424.132 70.6171 414.714 63.1407 405.903 58.7534C397.099 54.3698 388.959 53.0963 381.585 55.0722C374.211 57.0481 367.799 62.2208 362.366 70.4189C356.929 78.6241 352.511 89.8079 349.131 103.677C342.371 131.413 339.812 169.682 341.393 215.788C344.554 307.984 364.26 431.293 399.778 563.847C435.296 696.402 479.884 813.044 523.245 894.468C544.929 935.188 566.279 967.05 586.002 987.69C595.863 998.011 605.282 1005.49 614.093 1009.87C622.897 1014.26 631.036 1015.53 638.41 1013.56Z" stroke="#2B2C3B" stroke-width="2"/>
<path opacity="0.517241" d="M679.69 1004.52C686.864 1001.9 692.801 996.192 697.498 987.552C702.2 978.904 705.626 967.378 707.785 953.267C712.101 925.047 711.316 886.701 705.723 840.908C694.538 749.339 664.16 628.216 617.224 499.262C570.288 370.307 515.704 257.995 465.412 180.66C440.261 141.985 416.215 112.105 394.768 93.2621C384.045 83.8402 374.011 77.2131 364.851 73.6104C355.699 70.0108 347.479 69.4515 340.305 72.0626C333.131 74.6737 327.194 80.3856 322.497 89.026C317.796 97.6737 314.369 109.2 312.211 123.311C307.894 151.531 308.679 189.877 314.273 235.67C325.457 327.239 355.835 448.361 402.771 577.316C449.707 706.271 504.291 818.583 554.583 895.918C579.734 934.593 603.78 964.473 625.227 983.316C635.95 992.738 645.984 999.365 655.144 1002.97C664.297 1006.57 672.516 1007.13 679.69 1004.52Z" stroke="#2B2C3B" stroke-width="2"/>
<path opacity="0.551724" d="M719.678 991.913C726.597 988.686 732.014 982.479 735.94 973.462C739.87 964.437 742.279 952.656 743.199 938.411C745.04 909.922 740.916 871.79 731.353 826.659C712.23 736.413 671.411 618.399 613.414 494.026C555.418 369.653 491.253 262.526 434.412 189.868C405.986 153.532 379.427 125.862 356.42 108.96C344.916 100.508 334.343 94.7809 324.903 91.9903C315.472 89.202 307.235 89.3613 300.316 92.5877C293.397 95.8141 287.981 102.022 284.054 111.039C280.125 120.063 277.716 131.844 276.795 146.089C274.954 174.578 279.079 212.71 288.642 257.841C307.765 348.087 348.584 466.101 406.58 590.474C464.577 714.848 528.742 821.975 585.583 894.633C614.008 930.968 640.568 958.638 663.575 975.541C675.079 983.992 685.652 989.719 695.091 992.51C704.522 995.298 712.759 995.139 719.678 991.913Z" stroke="#2B2C3B" stroke-width="2"/>
<path opacity="0.586207" d="M758.076 975.899C764.688 972.082 769.543 965.426 772.668 956.101C775.797 946.769 777.17 934.822 776.845 920.551C776.196 892.01 768.763 854.383 755.303 810.257C728.388 722.021 677.438 608.014 608.823 489.169C540.208 370.323 466.95 269.196 403.992 201.769C372.508 168.049 343.638 142.799 319.246 127.966C307.049 120.55 296.017 115.766 286.37 113.808C276.732 111.853 268.54 112.729 261.929 116.546C255.317 120.364 250.462 127.02 247.337 136.344C244.209 145.677 242.835 157.623 243.16 171.894C243.809 200.435 251.242 238.062 264.702 282.188C291.617 370.425 342.567 484.432 411.182 603.277C479.797 722.122 553.056 823.249 616.013 890.677C647.497 924.396 676.367 949.647 700.759 964.479C712.956 971.896 723.988 976.68 733.635 978.637C743.273 980.593 751.465 979.716 758.076 975.899Z" stroke="#2B2C3B" stroke-width="2"/>
<path opacity="0.62069" d="M794.577 956.613C800.83 952.234 805.087 945.181 807.387 935.619C809.69 926.049 810.017 914.028 808.45 899.84C805.316 871.464 794.632 834.628 777.377 791.843C742.874 706.289 682.182 597.156 603.47 484.743C524.757 372.33 442.964 277.973 374.37 216.289C340.067 185.442 309.106 162.804 283.514 150.153C270.717 143.828 259.31 140.024 249.529 138.915C239.757 137.806 231.673 139.394 225.419 143.772C219.166 148.151 214.909 155.205 212.608 164.767C210.305 174.337 209.979 186.357 211.546 200.546C214.68 228.921 225.364 265.758 242.618 308.542C277.122 394.097 337.814 503.23 416.526 615.643C495.238 728.055 577.032 822.413 645.626 884.097C679.929 914.944 710.89 937.582 736.482 950.232C749.279 956.558 760.686 960.362 770.467 961.471C780.239 962.579 788.323 960.992 794.577 956.613Z" stroke="#2B2C3B" stroke-width="2"/>
<path opacity="0.655172" d="M828.921 934.231C834.77 929.324 838.395 921.926 839.854 912.2C841.314 902.466 840.592 890.462 837.794 876.465C832.198 848.47 818.345 812.705 797.427 771.587C755.599 689.365 685.626 585.937 597.416 480.812C509.205 375.688 419.5 288.818 345.79 233.347C308.929 205.607 276.113 185.754 249.516 175.382C236.216 170.196 224.521 167.4 214.681 167.148C204.85 166.896 196.934 169.181 191.086 174.089C185.238 178.996 181.613 186.394 180.154 196.12C178.694 205.854 179.416 217.857 182.214 231.855C187.809 259.849 201.663 295.614 222.581 336.733C264.409 418.954 334.382 522.382 422.592 627.507C510.802 732.632 600.508 819.501 674.217 874.972C711.079 902.712 743.894 922.566 770.492 932.937C783.791 938.123 795.487 940.919 805.327 941.172C815.158 941.424 823.073 939.138 828.921 934.231Z" stroke="#2B2C3B" stroke-width="2"/>
<path opacity="0.689655" d="M860.83 908.957C866.228 903.558 869.195 895.873 869.801 886.057C870.407 876.232 868.641 864.338 864.634 850.637C856.62 823.236 839.702 788.815 815.28 749.676C766.445 671.413 687.724 574.477 590.687 477.441C493.65 380.404 396.715 301.683 318.451 252.848C279.313 228.426 244.891 211.508 217.491 203.494C203.79 199.487 191.896 197.721 182.071 198.327C172.255 198.933 164.569 201.9 159.171 207.298C153.773 212.696 150.806 220.382 150.2 230.198C149.594 240.022 151.36 251.917 155.367 265.618C163.381 293.018 180.299 327.439 204.721 366.578C253.556 444.841 332.277 541.777 429.314 638.814C526.351 735.851 623.286 814.571 701.55 863.407C740.688 887.829 775.11 904.746 802.51 912.761C816.211 916.768 828.105 918.533 837.93 917.927C847.746 917.322 855.432 914.355 860.83 908.957Z" stroke="#2B2C3B" stroke-width="2"/>
<path opacity="0.724138" d="M890.07 881.019C894.978 875.171 897.263 867.255 897.011 857.424C896.758 847.584 893.963 835.889 888.777 822.589C878.405 795.992 858.552 763.176 830.812 726.315C775.341 652.605 688.471 562.9 583.346 474.689C478.221 386.479 374.794 316.506 292.572 274.678C251.454 253.76 215.689 239.907 187.694 234.311C173.696 231.513 161.693 230.791 151.959 232.251C142.233 233.71 134.835 237.335 129.928 243.184C125.021 249.032 122.735 256.947 122.987 266.778C123.24 276.618 126.035 288.314 131.221 301.613C141.593 328.211 161.446 361.027 189.187 397.888C244.657 471.597 331.527 561.303 436.652 649.513C541.777 737.723 645.204 807.696 727.426 849.524C768.545 870.442 804.309 884.296 832.304 889.891C846.302 892.689 858.305 893.411 868.039 891.951C877.765 890.493 885.163 886.867 890.07 881.019Z" stroke="#2B2C3B" stroke-width="2"/>
<path opacity="0.758621" d="M916.418 850.651C920.796 844.397 922.384 836.313 921.275 826.541C920.166 816.76 916.362 805.353 910.037 792.556C897.386 766.964 874.748 736.003 843.901 701.7C782.217 633.106 687.86 551.313 575.447 472.6C463.034 393.888 353.901 333.196 268.347 298.693C225.562 281.438 188.726 270.755 160.35 267.62C146.162 266.053 134.141 266.38 124.571 268.683C115.01 270.983 107.956 275.24 103.577 281.494C99.1979 287.747 97.6108 295.831 98.7189 305.603C99.8281 315.384 103.632 326.791 109.958 339.588C122.608 365.18 145.246 396.141 176.093 430.444C237.777 499.039 332.135 580.832 444.547 659.544C556.96 738.256 666.093 798.948 751.648 833.452C794.432 850.706 831.269 861.39 859.644 864.524C873.833 866.091 885.853 865.765 895.423 863.462C904.985 861.161 912.039 856.904 916.418 850.651Z" stroke="#2B2C3B" stroke-width="2"/>
<path opacity="0.793103" d="M939.679 818.11C943.496 811.498 944.373 803.306 942.417 793.668C940.46 784.022 935.676 772.989 928.259 760.793C913.427 736.4 888.176 707.53 854.457 676.046C787.029 613.089 685.902 539.831 567.057 471.215C448.211 402.6 334.205 351.65 245.968 324.735C201.842 311.275 164.215 303.843 135.674 303.193C121.403 302.869 109.457 304.242 100.124 307.37C90.7995 310.495 84.1434 315.35 80.3263 321.962C76.5092 328.573 75.6326 336.765 77.5883 346.404C79.5456 356.05 84.3296 367.082 91.7462 379.279C106.579 403.672 131.829 432.541 165.549 464.026C232.976 526.983 334.103 600.241 452.949 668.856C571.794 737.472 685.801 788.421 774.037 815.337C818.163 828.797 855.79 836.229 884.331 836.878C898.602 837.203 910.548 835.83 919.881 832.702C929.206 829.576 935.862 824.721 939.679 818.11Z" stroke="#2B2C3B" stroke-width="2"/>
<path opacity="0.827586" d="M959.659 783.688C962.886 776.769 963.045 768.532 960.257 759.101C957.466 749.662 951.739 739.088 943.287 727.584C926.385 704.577 898.715 678.018 862.379 649.593C789.722 592.752 682.594 528.586 558.221 470.59C433.848 412.594 315.834 371.774 225.588 352.652C180.457 343.089 142.325 338.964 113.836 340.805C99.5909 341.725 87.8098 344.134 78.7852 348.064C69.7683 351.99 63.5607 357.407 60.3343 364.326C57.1079 371.245 56.9487 379.482 59.7369 388.913C62.5275 398.352 68.2549 408.926 76.7063 420.43C93.6086 443.437 121.279 469.996 157.614 498.421C230.272 555.262 337.399 619.428 461.773 677.424C586.146 735.42 704.16 776.24 794.406 795.362C839.537 804.925 877.669 809.05 906.158 807.209C920.403 806.289 932.184 803.88 941.208 799.95C950.225 796.024 956.433 790.607 959.659 783.688Z" stroke="#2B2C3B" stroke-width="2"/>
<path opacity="0.862069" d="M976.223 747.67C978.834 740.496 978.274 732.277 974.675 723.125C971.072 713.964 964.445 703.931 955.023 693.207C936.18 671.761 906.3 647.714 867.626 622.564C790.29 572.272 677.978 517.687 549.023 470.751C420.069 423.816 298.947 393.437 207.377 382.253C161.584 376.66 123.238 375.874 95.0179 380.191C80.9074 382.349 69.381 385.776 60.7333 390.477C52.0929 395.174 46.381 401.111 43.7699 408.285C41.1588 415.459 41.7181 423.679 45.3177 432.831C48.9204 441.991 55.5475 452.025 64.9694 462.748C83.8125 484.195 113.692 508.241 152.367 533.392C229.702 583.684 342.014 638.269 470.969 685.204C599.924 732.14 721.046 762.518 812.615 773.703C858.408 779.296 896.754 780.081 924.974 775.765C939.085 773.606 950.611 770.18 959.259 765.478C967.9 760.781 973.611 754.844 976.223 747.67Z" stroke="#2B2C3B" stroke-width="2"/>
<path opacity="0.896552" d="M989.242 710.359C991.218 702.985 989.944 694.845 985.561 686.041C981.173 677.23 973.697 667.812 963.376 657.951C942.736 638.228 910.874 616.877 870.154 595.193C788.73 551.833 672.088 507.244 539.533 471.726C406.979 436.209 283.67 416.502 191.474 413.341C145.368 411.76 107.099 414.32 79.3625 421.08C65.4938 424.46 54.3099 428.878 46.1048 434.315C37.9067 439.747 32.734 446.16 30.7581 453.534C28.7822 460.908 30.0557 469.048 34.4393 477.851C38.8266 486.663 46.303 496.081 56.6237 505.942C77.2642 525.665 109.126 547.016 149.846 568.7C231.27 612.06 347.912 656.648 480.467 692.166C613.021 727.684 736.33 747.391 828.526 750.552C874.632 752.132 912.901 749.573 940.637 742.813C954.506 739.433 965.69 735.015 973.895 729.578C982.093 724.145 987.266 717.733 989.242 710.359Z" stroke="#2B2C3B" stroke-width="2"/>
<path opacity="0.931035" d="M998.607 672.07C999.933 664.552 997.955 656.554 992.821 648.166C987.682 639.771 979.413 631.04 968.273 622.115C945.992 604.267 912.39 585.774 869.936 567.722C785.042 531.623 664.958 497.37 529.812 473.54C394.666 449.71 270.109 440.826 177.988 445.713C131.92 448.156 94.0199 454.041 66.9781 463.193C53.4567 467.769 42.7005 473.145 35.0005 479.276C27.307 485.403 22.7129 492.241 21.3872 499.76C20.0615 507.278 22.0396 515.276 27.1738 523.664C32.3123 532.059 40.5811 540.79 51.722 549.714C74.003 567.563 107.604 586.055 150.059 604.108C234.953 640.207 355.037 674.459 490.183 698.289C625.329 722.119 749.886 731.003 842.006 726.117C888.075 723.673 925.975 717.788 953.016 708.637C966.538 704.061 977.294 698.685 984.994 692.553C992.688 686.427 997.282 679.588 998.607 672.07Z" stroke="#2B2C3B" stroke-width="2"/>
<path opacity="0.965517" d="M1004.26 633.128C1004.92 625.523 1002.26 617.728 996.411 609.819C990.56 601.904 981.562 593.927 969.686 586.007C945.934 570.169 910.849 554.675 866.982 540.391C779.265 511.829 656.653 488.172 519.944 476.212C383.236 464.252 258.378 466.257 167.034 479.154C121.354 485.603 84.1111 494.769 57.9699 506.243C44.8987 511.979 34.652 518.273 27.5157 525.052C20.3855 531.825 16.4048 539.038 15.7395 546.644C15.0741 554.249 17.7417 562.044 23.5874 569.952C29.4381 577.868 38.4364 585.845 50.3127 593.764C74.0645 609.603 109.15 625.097 153.016 639.38C240.733 667.943 363.345 691.599 500.054 703.56C636.763 715.52 761.62 713.515 852.964 700.618C898.644 694.169 935.887 685.003 962.028 673.529C975.1 667.792 985.346 661.499 992.483 654.72C999.613 647.946 1003.59 640.733 1004.26 633.128Z" stroke="#2B2C3B" stroke-width="2"/>
<path d="M1006.15 593.853C1006.15 586.219 1002.81 578.686 996.297 571.317C989.779 563.941 980.12 556.779 967.598 549.925C942.557 536.217 906.254 523.84 861.31 513.433C771.438 492.625 647.23 479.745 509.999 479.745C372.768 479.745 248.561 492.625 158.688 513.433C113.744 523.84 77.4419 536.217 52.4001 549.925C39.8787 556.779 30.2195 563.941 23.7011 571.317C17.1884 578.686 13.8516 586.219 13.8516 593.853C13.8516 601.487 17.1884 609.02 23.7011 616.389C30.2195 623.764 39.8787 630.927 52.4001 637.781C77.4419 651.489 113.744 663.866 158.688 674.272C248.561 695.081 372.768 707.961 509.999 707.961C647.23 707.961 771.438 695.081 861.31 674.272C906.254 663.866 942.557 651.489 967.598 637.781C980.12 630.927 989.779 623.764 996.297 616.389C1002.81 609.02 1006.15 601.487 1006.15 593.853Z" stroke="#2B2C3B" stroke-width="2"/>
</g>
</svg>
