<svg width="1366" height="426" viewBox="0 0 1366 426" fill="none" xmlns="http://www.w3.org/2000/svg">
<g clip-path="url(#clip0_222_2888)">
<path d="M1194.66 -220.177C1185.98 -185.875 1161.67 -157.214 1125.07 -134.77C1088.46 -112.324 1039.59 -96.1157 981.846 -86.7204C866.366 -67.93 715.517 -76.4078 556.681 -116.63C397.845 -156.853 261.142 -221.193 168.524 -292.681C122.214 -328.425 86.9459 -365.941 65.4354 -403.104C43.9265 -440.263 36.1891 -477.039 44.8757 -511.342C53.5623 -545.644 77.8703 -574.305 114.473 -596.749C151.078 -619.194 199.952 -635.403 257.692 -644.798C373.172 -663.589 524.021 -655.111 682.857 -614.888C841.693 -574.666 978.396 -510.326 1071.01 -438.838C1117.32 -403.094 1152.59 -365.578 1174.1 -328.415C1195.61 -291.255 1203.35 -254.48 1194.66 -220.177Z" stroke="url(#paint0_linear_222_2888)"/>
<path d="M1455.27 -154.178C1442.63 -104.265 1407.26 -62.5798 1354.05 -29.9493C1300.83 2.68289 1229.79 26.2402 1145.88 39.894C978.057 67.2011 758.852 54.8792 528.051 -3.56728C297.251 -62.0137 98.6006 -155.507 -35.997 -259.396C-103.296 -311.342 -154.563 -365.871 -185.836 -419.899C-217.107 -473.925 -228.37 -527.418 -215.731 -577.331C-203.091 -627.243 -167.725 -668.928 -114.51 -701.559C-61.292 -734.191 9.74863 -757.748 93.66 -771.402C261.481 -798.709 480.686 -786.387 711.487 -727.941C942.287 -669.494 1140.94 -576.002 1275.54 -472.112C1342.83 -420.166 1394.1 -365.637 1425.37 -311.609C1456.64 -257.584 1467.91 -204.09 1455.27 -154.178Z" stroke="url(#paint1_linear_222_2888)"/>
<path d="M1772.38 -73.8768C1754.94 -4.96964 1706.11 52.5638 1632.68 97.5894C1559.25 142.617 1461.24 175.116 1345.48 193.951C1113.97 231.622 811.588 214.622 493.22 134.001C174.852 53.3795 -99.1758 -75.5873 -284.855 -218.904C-377.695 -290.563 -448.427 -365.795 -491.579 -440.345C-534.729 -514.893 -550.284 -588.728 -532.834 -657.635C-515.384 -726.543 -466.562 -784.076 -393.133 -829.102C-319.7 -874.129 -221.686 -906.628 -105.93 -925.464C125.581 -963.134 427.963 -946.135 746.331 -865.513C1064.7 -784.892 1338.73 -655.925 1524.41 -512.608C1617.25 -440.949 1687.98 -365.717 1731.13 -291.167C1774.28 -216.62 1789.83 -142.784 1772.38 -73.8768Z" stroke="url(#paint2_linear_222_2888)"/>
</g>
<defs>
<linearGradient id="paint0_linear_222_2888" x1="84.6927" y1="-531.207" x2="1080.75" y2="-117.978" gradientUnits="userSpaceOnUse">
<stop stop-color="#484848"/>
<stop offset="0.491388" stop-color="#484848" stop-opacity="0.36"/>
<stop offset="1" stop-color="#484848"/>
</linearGradient>
<linearGradient id="paint1_linear_222_2888" x1="-157.66" y1="-606.139" x2="1289.55" y2="-5.74514" gradientUnits="userSpaceOnUse">
<stop stop-color="#484848"/>
<stop offset="0.491388" stop-color="#484848" stop-opacity="0.36"/>
<stop offset="1" stop-color="#484848"/>
</linearGradient>
<linearGradient id="paint2_linear_222_2888" x1="-452.551" y1="-697.324" x2="1543.61" y2="130.813" gradientUnits="userSpaceOnUse">
<stop stop-color="#484848"/>
<stop offset="0.491388" stop-color="#484848" stop-opacity="0.36"/>
<stop offset="1" stop-color="#484848"/>
</linearGradient>
<clipPath id="clip0_222_2888">
<rect width="1440" height="426" fill="white"/>
</clipPath>
</defs>
</svg>
