<?xml version="1.0" encoding="UTF-8"?>
<svg version="1.1" xmlns="http://www.w3.org/2000/svg" width="512" height="512">
<path d="M0 0 C0.95648438 0.59941406 1.91296875 1.19882812 2.8984375 1.81640625 C14.37384227 9.18466213 24.68560877 18.11334468 35 27 C33.70701105 29.84374027 32.34960102 31.89894298 30.13998413 34.1005249 C29.55665817 34.68660019 28.97333221 35.27267548 28.37232971 35.87651062 C27.73431931 36.50733047 27.0963089 37.13815033 26.43896484 37.78808594 C25.76567642 38.46166641 25.092388 39.13524689 24.3986969 39.82923889 C22.17415197 42.05239154 19.94260871 44.26837793 17.7109375 46.484375 C16.16636338 48.02521865 14.62223049 49.56650472 13.07852173 51.10821533 C9.01571302 55.16339037 4.94693378 59.21252324 0.87689209 63.26043701 C-3.27579106 67.39265611 -7.42281344 71.53054757 -11.5703125 75.66796875 C-19.70800398 83.78421499 -27.85201269 91.89409083 -36 100 C-39.39841526 98.38017792 -41.90124024 96.4771824 -44.75 94 C-70.01886012 73.09942687 -101.30509394 62.58255939 -134 62.625 C-135.24950439 62.62588623 -136.49900879 62.62677246 -137.78637695 62.62768555 C-178.36718092 63.13769629 -213.48280322 81.20026894 -242.1875 108.875 C-256.26095515 123.33558903 -266.03407364 140.59329636 -274 159 C-274.70962891 160.62035156 -274.70962891 160.62035156 -275.43359375 162.2734375 C-288.85822757 196.14868172 -287.99533853 238.44953092 -274 272 C-266.29206654 289.57957762 -256.21951098 307.07029767 -242.4375 320.5625 C-241.633125 321.366875 -240.82875 322.17125 -240 323 C-240 323.66 -240 324.32 -240 325 C-239.34 325 -238.68 325 -238 325 C-238 325.66 -238 326.32 -238 327 C-237.443125 327.2475 -236.88625 327.495 -236.3125 327.75 C-233.57589087 329.22924818 -231.32349131 330.93467439 -229 333 C-229 333.66 -229 334.32 -229 335 C-228.22076172 335.35191406 -228.22076172 335.35191406 -227.42578125 335.7109375 C-224.84838448 337.08056863 -222.48104021 338.67072982 -220.07910156 340.32495117 C-200.21132465 353.97956037 -179.79843891 362.02965989 -156 366 C-154.60297852 366.26369385 -154.60297852 366.26369385 -153.17773438 366.53271484 C-146.9437106 367.4494267 -140.60400224 367.24489115 -134.3125 367.25 C-133.57046326 367.25067474 -132.82842651 367.25134949 -132.06390381 367.25204468 C-120.4608136 367.23527766 -109.33134057 366.62240327 -98 364 C-97.22060059 363.82839355 -96.44120117 363.65678711 -95.63818359 363.47998047 C-72.05918646 358.19771865 -51.45806864 347.67357825 -33.62890625 331.28515625 C-32 330 -32 330 -30 330 C-29.76796875 329.45601563 -29.5359375 328.91203125 -29.296875 328.3515625 C-27.63257813 325.33377118 -25.51265687 322.97362713 -23.25 320.375 C-18.86235252 315.21093753 -15.20556916 309.99073581 -12 304 C-11.42507813 302.95328125 -10.85015625 301.9065625 -10.2578125 300.828125 C-5.67315451 292.13104848 -2.66435188 283.43000948 0 274 C0.66 271.69 1.32 269.38 2 267 C-43.54 267 -89.08 267 -136 267 C-136 234 -136 201 -136 167 C-56.8 167 22.4 167 104 167 C118.0545685 230.24555825 107.24087818 301.34247918 74 357 C73.33003637 358.17725238 72.66211106 359.35566679 71.99609375 360.53515625 C64.74024968 373.12993843 55.76246807 384.08641233 45.98828125 394.7890625 C44.4039618 396.55080083 42.90609002 398.33088787 41.4375 400.1875 C37.66562631 404.53966195 33.54570507 409.15143164 28 411 C28 411.66 28 412.32 28 413 C25.9102773 414.79539556 23.82157918 416.47061442 21.625 418.125 C21.02171875 418.59292969 20.4184375 419.06085938 19.796875 419.54296875 C15.26141126 423 15.26141126 423 13 423 C13 423.66 13 424.32 13 425 C11.05078125 426.4453125 11.05078125 426.4453125 8.3125 428.125 C6.79462891 429.05892578 6.79462891 429.05892578 5.24609375 430.01171875 C4.17488281 430.66785156 3.10367187 431.32398438 2 432 C1.00097656 432.64582031 0.00195312 433.29164063 -1.02734375 433.95703125 C-32.03752907 453.78321531 -69.62053384 464.35357332 -106 468 C-107.08539063 468.11085938 -108.17078125 468.22171875 -109.2890625 468.3359375 C-117.70853334 469.03914387 -126.11770938 469.10072672 -134.5625 469.125 C-135.67399414 469.12967285 -136.78548828 469.1343457 -137.93066406 469.13916016 C-198.39130221 469.02367554 -256.77571429 445.75411894 -302 406 C-303.04994141 405.11634766 -303.04994141 405.11634766 -304.12109375 404.21484375 C-308.51532273 400.49665 -312.60760933 396.49345835 -316.6875 392.4375 C-317.23470703 391.89496582 -317.78191406 391.35243164 -318.34570312 390.79345703 C-328 381.10094278 -328 381.10094278 -328 378 C-328.66 378 -329.32 378 -330 378 C-333 374.53846154 -333 374.53846154 -333 372 C-333.66 372 -334.32 372 -335 372 C-336.36938477 370.40209961 -336.36938477 370.40209961 -337.94140625 368.15234375 C-338.80995239 366.9152063 -338.80995239 366.9152063 -339.69604492 365.65307617 C-340.3119751 364.75693604 -340.92790527 363.8607959 -341.5625 362.9375 C-342.19583252 362.02009033 -342.82916504 361.10268066 -343.48168945 360.1574707 C-362.95352063 331.73221823 -376.63888078 300.43396334 -383.75 266.6875 C-383.94859619 265.74656494 -384.14719238 264.80562988 -384.35180664 263.83618164 C-384.94501672 260.89706068 -385.48430104 257.95369809 -386 255 C-386.28363403 253.41493652 -386.28363403 253.41493652 -386.57299805 251.79785156 C-388.30481614 240.77284304 -388.33809978 229.79788987 -388.31567383 218.65966797 C-388.31252577 215.40167358 -388.33601034 212.14460087 -388.36132812 208.88671875 C-388.41440751 191.47742288 -386.68078452 174.6385562 -382.625 157.6875 C-382.30801147 156.33060059 -382.30801147 156.33060059 -381.98461914 154.94628906 C-379.20473387 143.3170167 -375.6927942 132.0067355 -371 121 C-370.59394531 119.99324219 -370.18789063 118.98648438 -369.76953125 117.94921875 C-361.41936533 97.67024438 -350.31006681 78.90158051 -336.94140625 61.5390625 C-335.24209503 59.31662328 -333.64025175 57.05912938 -332.0625 54.75 C-331.381875 53.8425 -330.70125 52.935 -330 52 C-329.34 52 -328.68 52 -328 52 C-327.78730469 51.47019531 -327.57460938 50.94039063 -327.35546875 50.39453125 C-325.47271685 47.06851708 -322.92091884 44.44792739 -320.3125 41.6875 C-319.77085205 41.10863037 -319.2292041 40.52976074 -318.67114258 39.93334961 C-305.6585128 26.07592083 -305.6585128 26.07592083 -300 22 C-299.34 22 -298.68 22 -298 22 C-298 21.34 -298 20.68 -298 20 C-280.45237666 3.28101442 -256.02537088 -9.45096634 -234 -19 C-233.28199219 -19.31275879 -232.56398437 -19.62551758 -231.82421875 -19.94775391 C-214.50665348 -27.36787157 -195.80226778 -32.88941616 -177.15917969 -35.67626953 C-175.61379792 -35.90797195 -174.07033491 -36.15261788 -172.52832031 -36.40576172 C-112.84780291 -46.08397769 -50.67773613 -32.69315695 0 0 Z " fill="#36A854" transform="translate(395,40)"/>
<path d="M0 0 C0.95648438 0.59941406 1.91296875 1.19882812 2.8984375 1.81640625 C14.37384227 9.18466213 24.68560877 18.11334468 35 27 C33.70701105 29.84374027 32.34960102 31.89894298 30.13998413 34.1005249 C29.55665817 34.68660019 28.97333221 35.27267548 28.37232971 35.87651062 C27.73431931 36.50733047 27.0963089 37.13815033 26.43896484 37.78808594 C25.76567642 38.46166641 25.092388 39.13524689 24.3986969 39.82923889 C22.17415197 42.05239154 19.94260871 44.26837793 17.7109375 46.484375 C16.16636338 48.02521865 14.62223049 49.56650472 13.07852173 51.10821533 C9.01571302 55.16339037 4.94693378 59.21252324 0.87689209 63.26043701 C-3.27579106 67.39265611 -7.42281344 71.53054757 -11.5703125 75.66796875 C-19.70800398 83.78421499 -27.85201269 91.89409083 -36 100 C-39.39841526 98.38017792 -41.90124024 96.4771824 -44.75 94 C-70.01886012 73.09942687 -101.30509394 62.58255939 -134 62.625 C-135.24950439 62.62588623 -136.49900879 62.62677246 -137.78637695 62.62768555 C-178.36718092 63.13769629 -213.48280322 81.20026894 -242.1875 108.875 C-256.26095515 123.33558903 -266.03407364 140.59329636 -274 159 C-274.70962891 160.62035156 -274.70962891 160.62035156 -275.43359375 162.2734375 C-287.18760892 191.93310195 -287.29699739 226.479787 -279 257 C-278.67 257.66 -278.34 258.32 -278 259 C-277.4453125 261.71875 -277.4453125 261.71875 -278 265 C-280.30344646 267.58756495 -283.06496824 269.49349039 -285.875 271.5 C-287.53943679 272.73908072 -289.20348887 273.97867834 -290.8671875 275.21875 C-291.72280273 275.84652344 -292.57841797 276.47429687 -293.45996094 277.12109375 C-297.36337095 280.00850662 -301.17881062 283.00517343 -305 286 C-306.49952584 287.16727604 -307.99952764 288.33394091 -309.5 289.5 C-310.2425 290.0775 -310.985 290.655 -311.75 291.25 C-314.75073242 293.58390299 -317.75146484 295.91780599 -320.75219727 298.25170898 C-321.49397217 298.82864502 -322.23574707 299.40558105 -323 300 C-326 302.33333333 -329 304.66666667 -332 307 C-332.79035645 307.61472168 -333.58071289 308.22944336 -334.39501953 308.86279297 C-336.00488281 310.11490885 -337.61474609 311.36702474 -339.22460938 312.61914062 C-339.99611328 313.21919922 -340.76761719 313.81925781 -341.5625 314.4375 C-342.63274414 315.26991211 -342.63274414 315.26991211 -343.72460938 316.11914062 C-344.41490234 316.65603516 -345.10519531 317.19292969 -345.81640625 317.74609375 C-348.05322266 319.48583984 -350.29003906 321.22558594 -352.52685547 322.96533203 C-353.3520166 323.60712402 -354.17717773 324.24891602 -355.02734375 324.91015625 C-356.3515625 325.94010417 -357.67578125 326.97005208 -359 328 C-358.67 329.98 -358.34 331.96 -358 334 C-361.5367109 330.73558509 -363.16903534 326.99658186 -365.1875 322.6875 C-365.57969727 321.85154297 -365.97189453 321.01558594 -366.37597656 320.15429688 C-375.90706607 299.40519937 -382.47986524 277.5543263 -386 255 C-386.25487183 253.53651123 -386.25487183 253.53651123 -386.51489258 252.04345703 C-388.26045858 240.92257513 -388.33829626 229.89547469 -388.31567383 218.65966797 C-388.31252577 215.40167358 -388.33601034 212.14460087 -388.36132812 208.88671875 C-388.41440751 191.47742288 -386.68078452 174.6385562 -382.625 157.6875 C-382.30801147 156.33060059 -382.30801147 156.33060059 -381.98461914 154.94628906 C-379.20473387 143.3170167 -375.6927942 132.0067355 -371 121 C-370.59394531 119.99324219 -370.18789063 118.98648438 -369.76953125 117.94921875 C-361.41936533 97.67024438 -350.31006681 78.90158051 -336.94140625 61.5390625 C-335.24209503 59.31662328 -333.64025175 57.05912938 -332.0625 54.75 C-331.381875 53.8425 -330.70125 52.935 -330 52 C-329.34 52 -328.68 52 -328 52 C-327.78730469 51.47019531 -327.57460938 50.94039063 -327.35546875 50.39453125 C-325.47271685 47.06851708 -322.92091884 44.44792739 -320.3125 41.6875 C-319.77085205 41.10863037 -319.2292041 40.52976074 -318.67114258 39.93334961 C-305.6585128 26.07592083 -305.6585128 26.07592083 -300 22 C-299.34 22 -298.68 22 -298 22 C-298 21.34 -298 20.68 -298 20 C-280.45237666 3.28101442 -256.02537088 -9.45096634 -234 -19 C-233.28199219 -19.31275879 -232.56398437 -19.62551758 -231.82421875 -19.94775391 C-214.50665348 -27.36787157 -195.80226778 -32.88941616 -177.15917969 -35.67626953 C-175.61379792 -35.90797195 -174.07033491 -36.15261788 -172.52832031 -36.40576172 C-112.84780291 -46.08397769 -50.67773613 -32.69315695 0 0 Z " fill="#EA4537" transform="translate(395,40)"/>
<path d="M0 0 C79.2 0 158.4 0 240 0 C254.0545685 63.24555825 243.24087818 134.34247918 210 190 C209.33003637 191.17725238 208.66211106 192.35566679 207.99609375 193.53515625 C200.74270386 206.12567843 191.77125228 217.08857017 181.9921875 227.78125 C180.37504112 229.58230715 178.86294604 231.40637305 177.375 233.3125 C174.52741334 236.53476911 171.57162608 238.61891594 168 241 C167.34902344 240.31164062 166.69804687 239.62328125 166.02734375 238.9140625 C162.48762715 235.37807322 158.53032971 232.4103331 154.5625 229.375 C152.94506566 228.12792425 151.32788079 226.88052487 149.7109375 225.6328125 C148.91268555 225.01825195 148.11443359 224.40369141 147.29199219 223.77050781 C144.07389274 221.28460483 140.87958558 218.76915697 137.6875 216.25 C132.87727557 212.46130724 128.03932324 208.71105487 123.18115234 204.98388672 C112.65991715 196.90694691 102.14860769 188.81015792 91.84765625 180.453125 C90.28822703 179.22668172 88.65073045 178.10048697 87 177 C87.556875 176.57589844 88.11375 176.15179688 88.6875 175.71484375 C93.42376935 172.07463674 97.9724966 168.32831121 102.37109375 164.28515625 C104 163 104 163 106 163 C106.23203125 162.45601562 106.4640625 161.91203125 106.703125 161.3515625 C108.36742187 158.33377118 110.48734313 155.97362713 112.75 153.375 C117.13764748 148.21093753 120.79443084 142.99073581 124 137 C124.86238281 135.42992187 124.86238281 135.42992187 125.7421875 133.828125 C130.32684549 125.13104848 133.33564812 116.43000948 136 107 C136.66 104.69 137.32 102.38 138 100 C92.46 100 46.92 100 0 100 C0 67 0 34 0 0 Z " fill="#4386F4" transform="translate(259,207)"/>
<path d="M0 0 C1.24546405 2.49092811 0.7767578 3.41080733 0 6 C7.09972739 12.07779693 14.36029469 17.83107034 21.86547852 23.39770508 C26.46603767 26.82078227 30.97658831 30.33463827 35.4375 33.9375 C40.67131784 38.16205686 45.96071098 42.30084599 51.3125 46.375 C57.5424924 51.11822406 63.75230147 55.88595513 69.9375 60.6875 C71.10116089 61.58831299 71.10116089 61.58831299 72.28833008 62.50732422 C73.00657959 63.06564941 73.7248291 63.62397461 74.46484375 64.19921875 C75.100271 64.69252686 75.73569824 65.18583496 76.39038086 65.6940918 C78 67 78 67 80 69 C80.99 68.01 81.98 67.02 83 66 C81.51474013 72.9312127 79.78960391 79.78671313 78 86.64453125 C75.49725533 97.13057366 74.56623458 107.35089732 74.5625 118.125 C74.55977081 118.81144592 74.55704163 119.49789185 74.55422974 120.20513916 C74.54614832 133.84460254 74.82483415 150.6496683 81 163 C81.5546875 165.71875 81.5546875 165.71875 81 169 C78.69655354 171.58756495 75.93503176 173.49349039 73.125 175.5 C71.46056321 176.73908072 69.79651113 177.97867834 68.1328125 179.21875 C67.27719727 179.84652344 66.42158203 180.47429687 65.54003906 181.12109375 C61.63662905 184.00850662 57.82118938 187.00517343 54 190 C52.50047416 191.16727604 51.00047236 192.33394091 49.5 193.5 C48.7575 194.0775 48.015 194.655 47.25 195.25 C42.74890137 198.75085449 42.74890137 198.75085449 38.24780273 202.25170898 C37.50602783 202.82864502 36.76425293 203.40558105 36 204 C33 206.33333333 30 208.66666667 27 211 C26.20964355 211.61472168 25.41928711 212.22944336 24.60498047 212.86279297 C22.99511719 214.11490885 21.38525391 215.36702474 19.77539062 216.61914062 C19.00388672 217.21919922 18.23238281 217.81925781 17.4375 218.4375 C16.72400391 218.99244141 16.01050781 219.54738281 15.27539062 220.11914062 C14.23995117 220.92448242 14.23995117 220.92448242 13.18359375 221.74609375 C10.94677734 223.48583984 8.70996094 225.22558594 6.47314453 226.96533203 C5.6479834 227.60712402 4.82282227 228.24891602 3.97265625 228.91015625 C2.6484375 229.94010417 1.32421875 230.97005208 0 232 C0.33 233.98 0.66 235.96 1 238 C-2.5367109 234.73558509 -4.16903534 230.99658186 -6.1875 226.6875 C-6.57969727 225.85154297 -6.97189453 225.01558594 -7.37597656 224.15429688 C-16.90706607 203.40519937 -23.47986524 181.5543263 -27 159 C-27.16991455 158.02434082 -27.3398291 157.04868164 -27.51489258 156.04345703 C-29.26045858 144.92257513 -29.33829626 133.89547469 -29.31567383 122.65966797 C-29.31252577 119.40167358 -29.33601034 116.14460087 -29.36132812 112.88671875 C-29.41440751 95.47742288 -27.68078452 78.6385562 -23.625 61.6875 C-23.41367432 60.78290039 -23.20234863 59.87830078 -22.98461914 58.94628906 C-20.2053038 47.31940095 -16.70046848 36.0014549 -12 25 C-11.32130859 23.35064453 -11.32130859 23.35064453 -10.62890625 21.66796875 C-7.50506138 14.17885493 -4.04766514 7.03317702 0 0 Z " fill="#FABC08" transform="translate(36,136)"/>
</svg>
