<svg width="28" height="28" viewBox="0 0 28 28" fill="none" xmlns="http://www.w3.org/2000/svg">
<path fill-rule="evenodd" clip-rule="evenodd" d="M20.8327 1.28309C20.5569 0.842365 20.1505 0.498601 19.6701 0.29965C19.1898 0.100698 18.6594 0.0564584 18.1527 0.173089L14.5567 0.99909C14.1882 1.08379 13.8052 1.08379 13.4367 0.99909L9.84069 0.173089C9.33402 0.0564584 8.80359 0.100698 8.32324 0.29965C7.84289 0.498601 7.43651 0.842365 7.16069 1.28309L5.20069 4.41109C5.00069 4.73109 4.73069 5.00109 4.41069 5.20309L1.28269 7.16309C0.842724 7.43867 0.499464 7.84438 0.300555 8.32392C0.101647 8.80345 0.0569566 9.333 0.172688 9.83909L0.998688 13.4391C1.08308 13.807 1.08308 14.1892 0.998688 14.5571L0.172688 18.1551C0.0565068 18.6615 0.100972 19.1915 0.299902 19.6714C0.498832 20.1513 0.842344 20.5574 1.28269 20.8331L4.41069 22.7931C4.73069 22.9931 5.00069 23.2631 5.20269 23.5831L7.16269 26.7111C7.72669 27.6131 8.80269 28.0591 9.84069 27.8211L13.4367 26.9951C13.8052 26.9104 14.1882 26.9104 14.5567 26.9951L18.1547 27.8211C18.6611 27.9373 19.1911 27.8928 19.671 27.6939C20.1509 27.4949 20.557 27.1514 20.8327 26.7111L22.7927 23.5831C22.9927 23.2631 23.2627 22.9931 23.5827 22.7931L26.7127 20.8331C27.153 20.557 27.4964 20.1505 27.695 19.6702C27.8936 19.1898 27.9375 18.6596 27.8207 18.1531L26.9967 14.5571C26.912 14.1886 26.912 13.8056 26.9967 13.4371L27.8227 9.83909C27.9391 9.33292 27.8949 8.80307 27.6963 8.32315C27.4978 7.84324 27.1547 7.43707 26.7147 7.16109L23.5847 5.20109C23.2651 5.00072 22.9951 4.73065 22.7947 4.41109L20.8327 1.28309ZM19.8267 9.53709C19.9504 9.30962 19.981 9.04304 19.9122 8.79343C19.8433 8.54383 19.6804 8.33066 19.4575 8.19878C19.2347 8.06689 18.9694 8.02658 18.7175 8.08633C18.4655 8.14607 18.2466 8.3012 18.1067 8.51909L12.8767 17.3711L9.71869 14.3471C9.625 14.2509 9.5129 14.1745 9.38907 14.1226C9.26524 14.0707 9.13222 14.0442 8.99794 14.0448C8.86366 14.0454 8.73087 14.073 8.6075 14.126C8.48413 14.179 8.3727 14.2564 8.27985 14.3534C8.18701 14.4504 8.11465 14.5651 8.0671 14.6907C8.01955 14.8162 7.99778 14.9501 8.00308 15.0843C8.00838 15.2185 8.04066 15.3502 8.09797 15.4716C8.15529 15.5931 8.23647 15.7017 8.33669 15.7911L12.4047 19.6891C12.5136 19.7932 12.6446 19.8714 12.7879 19.9177C12.9312 19.9641 13.0831 19.9775 13.2324 19.957C13.3816 19.9364 13.5243 19.8824 13.6497 19.7989C13.7751 19.7155 13.88 19.6048 13.9567 19.4751L19.8267 9.53709Z" fill="#4ECB71"/>
</svg>
