<?xml version="1.0" encoding="UTF-8" standalone="no" ?>
<!DOCTYPE svg PUBLIC "-//W3C//DTD SVG 1.1//EN" "http://www.w3.org/Graphics/SVG/1.1/DTD/svg11.dtd">
<svg xmlns="http://www.w3.org/2000/svg" xmlns:xlink="http://www.w3.org/1999/xlink" version="1.1" width="1080" height="1080" viewBox="0 0 1080 1080" xml:space="preserve">
<desc>Created with Fabric.js 5.2.4</desc>
<defs>
</defs>
<rect x="0" y="0" width="100%" height="100%" fill="transparent"></rect>
<g transform="matrix(1 0 0 1 540 540)" id="a47ef154-24b4-493e-bcfe-5b01bb45af80"  >
<rect style="stroke: none; stroke-width: 1; stroke-dasharray: none; stroke-linecap: butt; stroke-dashoffset: 0; stroke-linejoin: miter; stroke-miterlimit: 4; fill: rgb(255,255,255); fill-rule: nonzero; opacity: 1; visibility: hidden;" vector-effect="non-scaling-stroke"  x="-540" y="-540" rx="0" ry="0" width="1080" height="1080" />
</g>
<g transform="matrix(1 0 0 1 540 540)" id="871bea66-bc06-46fa-b862-2303ec3e9ca1"  >
</g>
<g transform="matrix(NaN NaN NaN NaN 0 0)"  >
<g style=""   >
</g>
</g>
<g transform="matrix(36.92 0 0 36.92 531.38 546.14)"  >
<g style="" vector-effect="non-scaling-stroke"   >
		<g transform="matrix(1 0 0 1 0 0)"  >
<path style="stroke: rgb(105,155,247); stroke-width: 1; stroke-dasharray: none; stroke-linecap: butt; stroke-dashoffset: 0; stroke-linejoin: miter; stroke-miterlimit: 4; fill: none; fill-rule: nonzero; opacity: 1;" vector-effect="non-scaling-stroke"  transform=" translate(-24, -24)" d="M 28.0942 11.0821 C 28.499 10.989 28.9228 11.0243 29.3066 11.1831 C 29.6905 11.3419 30.0153 11.6162 30.2362 11.9681 L 32.2242 15.1421 C 32.3845 15.3977 32.6005 15.6138 32.8562 15.7741 L 36.0302 17.7621 C 36.3827 17.9827 36.6577 18.3078 36.8169 18.6921 C 36.9761 19.0764 37.0115 19.5007 36.9182 19.9061 L 36.0782 23.5541 C 36.0104 23.8489 36.0104 24.1552 36.0782 24.4501 L 36.9182 28.1001 C 37.0106 28.5048 36.9747 28.9283 36.8156 29.3118 C 36.6565 29.6952 36.382 30.0197 36.0302 30.2401 L 32.8562 32.2301 C 32.6002 32.39 32.3841 32.6061 32.2242 32.8621 L 30.2362 36.0361 C 30.0156 36.3883 29.6909 36.663 29.307 36.8222 C 28.9231 36.9813 28.4992 37.0169 28.0942 36.9241 L 24.4442 36.0841 C 24.15 36.0166 23.8443 36.0166 23.5502 36.0841 L 19.9002 36.9241 C 19.4951 37.0169 19.0712 36.9813 18.6873 36.8222 C 18.3035 36.663 17.9787 36.3883 17.7582 36.0361 L 15.7702 32.8621 C 15.6092 32.6063 15.3925 32.3902 15.1362 32.2301 L 11.9642 30.2421 C 11.612 30.0215 11.3372 29.6968 11.1781 29.3129 C 11.0189 28.929 10.9833 28.5051 11.0762 28.1001 L 11.9142 24.4501 C 11.9819 24.1552 11.9819 23.8489 11.9142 23.5541 L 11.0742 19.9061 C 10.981 19.5005 11.0167 19.076 11.1763 18.6917 C 11.3358 18.3074 11.6112 17.9825 11.9642 17.7621 L 15.1362 15.7741 C 15.3925 15.614 15.6093 15.3979 15.7702 15.1421 L 17.7582 11.9681 C 17.9789 11.6166 18.3034 11.3425 18.6869 11.1838 C 19.0703 11.025 19.4936 10.9895 19.8982 11.0821 L 23.5502 11.9201 C 23.8443 11.9875 24.15 11.9875 24.4442 11.9201 L 28.0942 11.0821 Z" stroke-linecap="round" />
</g>
		<g transform="matrix(1 0 0 1 0 0)"  >
<path style="stroke: rgb(105,155,247); stroke-width: 1; stroke-dasharray: none; stroke-linecap: round; stroke-dashoffset: 0; stroke-linejoin: round; stroke-miterlimit: 4; fill: none; fill-rule: nonzero; opacity: 1;" vector-effect="non-scaling-stroke"  transform=" translate(-23.99, -24)" d="M 19.0234 25.0732 L 23.0934 28.9712 L 28.9634 19.0312" stroke-linecap="round" />
</g>
</g>
</g>
</svg>