<svg width="48" height="48" viewBox="0 0 48 48" fill="none" xmlns="http://www.w3.org/2000/svg">
  <path d="M28.0942 11.0821C28.499 10.989 28.9228 11.0243 29.3066 11.1831C29.6905 11.3419 30.0153 11.6162 30.2362 11.9681L32.2242 15.1421C32.3845 15.3977 32.6005 15.6138 32.8562 15.7741L36.0302 17.7621C36.3827 17.9827 36.6577 18.3078 36.8169 18.6921C36.9761 19.0764 37.0115 19.5007 36.9182 19.9061L36.0782 23.5541C36.0104 23.8489 36.0104 24.1552 36.0782 24.4501L36.9182 28.1001C37.0106 28.5048 36.9747 28.9283 36.8156 29.3118C36.6565 29.6952 36.382 30.0197 36.0302 30.2401L32.8562 32.2301C32.6002 32.39 32.3841 32.6061 32.2242 32.8621L30.2362 36.0361C30.0156 36.3883 29.6909 36.663 29.307 36.8222C28.9231 36.9813 28.4992 37.0169 28.0942 36.9241L24.4442 36.0841C24.15 36.0166 23.8443 36.0166 23.5502 36.0841L19.9002 36.9241C19.4951 37.0169 19.0712 36.9813 18.6873 36.8222C18.3035 36.663 17.9787 36.3883 17.7582 36.0361L15.7702 32.8621C15.6092 32.6063 15.3925 32.3902 15.1362 32.2301L11.9642 30.2421C11.612 30.0215 11.3372 29.6968 11.1781 29.3129C11.0189 28.929 10.9833 28.5051 11.0762 28.1001L11.9142 24.4501C11.9819 24.1552 11.9819 23.8489 11.9142 23.5541L11.0742 19.9061C10.981 19.5005 11.0167 19.076 11.1763 18.6917C11.3358 18.3074 11.6112 17.9825 11.9642 17.7621L15.1362 15.7741C15.3925 15.614 15.6093 15.3979 15.7702 15.1421L17.7582 11.9681C17.9789 11.6166 18.3034 11.3425 18.6869 11.1838C19.0703 11.025 19.4936 10.9895 19.8982 11.0821L23.5502 11.9201C23.8443 11.9875 24.15 11.9875 24.4442 11.9201L28.0942 11.0821Z" fill="#4ecb71"/>
  <path d="M19.0234 25.0732L23.0934 28.9712L28.9634 19.0312" stroke="#808080" stroke-linecap="round" stroke-linejoin="round"/>
</svg>

