<svg width="1366" height="853" viewBox="0 0 1366 853" fill="none" xmlns="http://www.w3.org/2000/svg">
<g opacity="0.5">
<path d="M139.83 743.987C148.517 778.29 172.825 806.95 209.427 829.394C246.032 851.84 294.906 868.048 352.647 877.444C468.126 896.234 618.975 887.756 777.811 847.534C936.647 807.311 1073.35 742.971 1165.97 671.483C1212.28 635.739 1247.55 598.223 1269.06 561.06C1290.57 523.901 1298.3 487.125 1289.62 452.822C1280.93 418.52 1256.62 389.859 1220.02 367.415C1183.41 344.97 1134.54 328.761 1076.8 319.366C961.32 300.575 810.471 309.053 651.635 349.276C492.799 389.498 356.097 453.838 263.479 525.326C217.169 561.07 181.9 598.586 160.39 635.749C138.881 672.909 131.143 709.684 139.83 743.987Z" stroke="url(#paint0_linear_222_2670)"/>
<path d="M-120.777 809.987C-108.137 859.899 -72.7709 901.584 -19.5557 934.215C33.6622 966.847 104.703 990.404 188.614 1004.06C356.435 1031.37 575.64 1019.04 806.441 960.597C1037.24 902.15 1235.89 808.657 1370.49 704.768C1437.79 652.822 1489.06 598.293 1520.33 544.265C1551.6 490.239 1562.86 436.746 1550.22 386.833C1537.58 336.921 1502.22 295.236 1449 262.605C1395.78 229.973 1324.74 206.416 1240.83 192.762C1073.01 165.455 853.806 177.777 623.005 236.223C392.205 294.67 193.555 388.163 58.9572 492.052C-8.3423 543.998 -59.6087 598.527 -90.8813 652.555C-122.152 706.58 -133.416 760.074 -120.777 809.987Z" stroke="url(#paint1_linear_222_2670)"/>
<path d="M-437.893 890.287C-420.443 959.194 -371.621 1016.73 -298.191 1061.75C-224.759 1106.78 -126.745 1139.28 -10.9887 1158.12C220.522 1195.79 522.904 1178.79 841.272 1098.16C1159.64 1017.54 1433.67 888.577 1619.35 745.26C1712.19 673.601 1782.92 598.369 1826.07 523.819C1869.22 449.272 1884.78 375.436 1867.33 306.529C1849.88 237.621 1801.05 180.088 1727.62 135.062C1654.19 90.0351 1556.18 57.5359 1440.42 38.7004C1208.91 1.02985 906.529 18.0294 588.162 98.6509C269.794 179.272 -4.23444 308.239 -189.913 451.556C-282.753 523.215 -353.486 598.447 -396.637 672.997C-439.787 747.544 -455.342 821.38 -437.893 890.287Z" stroke="url(#paint2_linear_222_2670)"/>
</g>
<defs>
<linearGradient id="paint0_linear_222_2670" x1="1249.8" y1="432.957" x2="253.74" y2="846.186" gradientUnits="userSpaceOnUse">
<stop stop-color="#484848"/>
<stop offset="0.491388" stop-color="#484848" stop-opacity="0.36"/>
<stop offset="1" stop-color="#484848"/>
</linearGradient>
<linearGradient id="paint1_linear_222_2670" x1="1492.15" y1="358.025" x2="44.9465" y2="958.419" gradientUnits="userSpaceOnUse">
<stop stop-color="#484848"/>
<stop offset="0.491388" stop-color="#484848" stop-opacity="0.36"/>
<stop offset="1" stop-color="#484848"/>
</linearGradient>
<linearGradient id="paint2_linear_222_2670" x1="1787.04" y1="266.84" x2="-209.123" y2="1094.98" gradientUnits="userSpaceOnUse">
<stop stop-color="#484848"/>
<stop offset="0.491388" stop-color="#484848" stop-opacity="0.36"/>
<stop offset="1" stop-color="#484848"/>
</linearGradient>
</defs>
</svg>
