<svg width="52" height="50" viewBox="0 0 52 50" fill="none" xmlns="http://www.w3.org/2000/svg">
<path d="M38.5379 0.0703125C32.4763 11.8913 29.1272 17.7863 25.7504 17.7863C22.3737 17.7863 19.0246 11.8913 12.9906 0.0703125C19.0246 11.8913 21.9031 18.1293 20.2147 21.4043C18.5263 24.6792 12.2987 25.0223 0.203125 25.0223C12.7415 25.0223 18.9692 25.3654 20.3808 28.9835C21.7094 32.352 18.8308 38.5588 12.9906 49.9744C19.0522 38.1533 22.4013 32.2584 25.7781 32.2584C29.1549 32.2584 32.504 38.1533 38.5656 49.9744C32.1442 37.4048 29.321 31.1668 31.7013 28.0478C33.8049 25.303 40.0049 25.0223 51.3531 25.0223C38.5656 25.0223 32.3379 24.6481 31.0924 20.8117C29.9576 17.3808 32.8362 11.2052 38.5379 0.0703125Z" fill="white"/>
</svg>
