<svg width="24" height="25" viewBox="0 0 24 25" fill="none" xmlns="http://www.w3.org/2000/svg">
<g clip-path="url(#clip0_236_4039)">
<path d="M23.6383 15.1529C22.0356 21.5815 15.5244 25.4938 9.09503 23.8907C2.66833 22.288 -1.24401 15.7765 0.359382 9.34837C1.96136 2.91903 8.47253 -0.993605 14.8999 0.609081C21.3289 2.21177 25.241 8.72404 23.6381 15.153L23.6382 15.1529H23.6383Z" fill="#F7931A"/>
<path d="M17.2871 10.5394C17.526 8.94242 16.3102 8.084 14.6477 7.51136L15.187 5.34816L13.8702 5.02005L13.3452 7.12629C12.999 7.03995 12.6435 6.95859 12.2901 6.87794L12.819 4.7578L11.503 4.42969L10.9634 6.59218C10.6769 6.52695 10.3955 6.46249 10.1226 6.39457L10.1241 6.38776L8.30818 5.9343L7.9579 7.34073C7.9579 7.34073 8.93485 7.56467 8.91426 7.57846C9.4475 7.71155 9.54393 8.06453 9.52791 8.34432L8.91356 10.8087C8.95028 10.818 8.99791 10.8315 9.05046 10.8526C9.00653 10.8417 8.95978 10.8298 8.91127 10.8182L8.05016 14.2705C7.98499 14.4325 7.81959 14.6756 7.44678 14.5833C7.45997 14.6024 6.48971 14.3444 6.48971 14.3444L5.83594 15.8517L7.54954 16.2789C7.86833 16.3589 8.18073 16.4425 8.48837 16.5212L7.94347 18.7092L9.25874 19.0373L9.79837 16.8725C10.1577 16.97 10.5064 17.06 10.8478 17.1448L10.31 19.2994L11.6268 19.6275L12.1717 17.4436C14.4171 17.8686 16.1055 17.6972 16.8161 15.6663C17.3888 14.0311 16.7876 13.0879 15.6063 12.4729C16.4667 12.2744 17.1148 11.7085 17.2876 10.5395L17.2872 10.5392L17.2871 10.5394ZM14.2785 14.7582C13.8716 16.3933 11.1185 15.5094 10.2258 15.2878L10.9489 12.389C11.8415 12.6119 14.7039 13.0528 14.2786 14.7582H14.2785ZM14.6858 10.5157C14.3146 12.003 12.0231 11.2474 11.2798 11.0621L11.9353 8.43312C12.6787 8.61841 15.0725 8.96424 14.6859 10.5157H14.6858Z" fill="white"/>
</g>
<defs>
<clipPath id="clip0_236_4039">
<rect width="24" height="24" fill="white" transform="translate(0 0.25)"/>
</clipPath>
</defs>
</svg>
