<svg width="52" height="49" viewBox="0 0 52 49" fill="none" xmlns="http://www.w3.org/2000/svg">
<rect x="0.5" y="4.5" width="43.8" height="43.8" rx="13.5" stroke="#D8B9C3"/>
<path d="M29.4016 27.8723V25.6386C29.3993 23.91 28.7523 22.2444 27.5873 20.9674C26.4222 19.6905 24.8227 18.894 23.1016 18.7337V17.3016C23.1016 17.1159 23.0278 16.9379 22.8965 16.8066C22.7653 16.6753 22.5872 16.6016 22.4016 16.6016C22.2159 16.6016 22.0379 16.6753 21.9066 16.8066C21.7753 16.9379 21.7016 17.1159 21.7016 17.3016V18.7338C19.9804 18.8941 18.381 19.6906 17.2159 20.9675C16.0508 22.2444 15.4039 23.91 15.4016 25.6386V27.8722C14.6116 28.0346 13.9018 28.4643 13.3918 29.089C12.8817 29.7137 12.6026 30.4951 12.6016 31.3016C12.6022 31.8583 12.8236 32.3921 13.2173 32.7858C13.611 33.1795 14.1448 33.401 14.7016 33.4016H18.9723C19.1337 34.1919 19.5632 34.9023 20.1881 35.4125C20.813 35.9226 21.5949 36.2013 22.4016 36.2013C23.2082 36.2013 23.9902 35.9226 24.615 35.4125C25.2399 34.9023 25.6694 34.1919 25.8308 33.4016H30.1016C30.6583 33.401 31.1921 33.1795 31.5858 32.7858C31.9795 32.3921 32.201 31.8583 32.2016 31.3016C32.2005 30.4951 31.9214 29.7137 31.4113 29.0891C30.9013 28.4644 30.1915 28.0347 29.4016 27.8723ZM16.8016 25.6386C16.8034 24.1706 17.3874 22.7633 18.4254 21.7254C19.4633 20.6874 20.8706 20.1034 22.3386 20.1016H22.4646C23.9325 20.1034 25.3398 20.6874 26.3778 21.7254C27.4158 22.7633 27.9997 24.1706 28.0016 25.6386V27.8016H16.8016V25.6386ZM22.4016 34.8016C21.9687 34.8002 21.5468 34.6649 21.1939 34.4143C20.841 34.1636 20.5744 33.8098 20.4306 33.4016H24.3726C24.2287 33.8098 23.9621 34.1636 23.6092 34.4143C23.2563 34.6649 22.8344 34.8002 22.4016 34.8016ZM30.1016 32.0016H14.7016C14.5159 32.0015 14.338 31.9277 14.2067 31.7964C14.0755 31.6652 14.0017 31.4872 14.0016 31.3016C14.0022 30.7448 14.2236 30.211 14.6173 29.8173C15.011 29.4236 15.5448 29.2022 16.1016 29.2016H28.7016C29.2583 29.2022 29.7921 29.4236 30.1858 29.8173C30.5795 30.211 30.801 30.7448 30.8016 31.3016C30.8015 31.4872 30.7277 31.6652 30.5964 31.7964C30.4652 31.9277 30.2872 32.0015 30.1016 32.0016Z" fill="#363062"/>
<circle cx="41.5953" cy="10.4" r="8.4" fill="#D8B9C3" stroke="white" stroke-width="4"/>
</svg>
