<svg width="52" height="48" viewBox="0 0 52 48" fill="none" xmlns="http://www.w3.org/2000/svg">
<rect x="0.5" y="4.5" width="42.3558" height="42.3558" rx="13.5" stroke="#D8B9C3"/>
<path d="M29.1233 19.5746H28.4459V16.8649C28.4459 16.7469 28.4151 16.631 28.3565 16.5286C28.2979 16.4262 28.2136 16.3408 28.1119 16.281C28.0103 16.2212 27.8947 16.189 27.7768 16.1876C27.6588 16.1861 27.5425 16.2155 27.4394 16.2728L21.6716 19.4771L15.9038 16.2728C15.8006 16.2155 15.6844 16.1861 15.5664 16.1876C15.4484 16.189 15.3329 16.2212 15.2312 16.281C15.1295 16.3408 15.0452 16.4262 14.9866 16.5286C14.9281 16.631 14.8972 16.7469 14.8972 16.8649V19.5746H14.2198C13.681 19.5752 13.1644 19.7895 12.7834 20.1705C12.4024 20.5515 12.1881 21.0681 12.1875 21.6069V23.6392C12.1881 24.178 12.4024 24.6946 12.7834 25.0756C13.1644 25.4566 13.681 25.6709 14.2198 25.6715H14.8972V33.1233C14.8978 33.6621 15.1121 34.1787 15.4931 34.5597C15.8741 34.9407 16.3907 35.155 16.9295 35.1556H26.4136C26.9524 35.155 27.469 34.9407 27.85 34.5597C28.231 34.1787 28.4453 33.6621 28.4459 33.1233V25.6715H29.1233C29.6622 25.6709 30.1787 25.4566 30.5597 25.0756C30.9407 24.6946 31.1551 24.178 31.1556 23.6392V21.6069C31.1551 21.0681 30.9407 20.5515 30.5597 20.1705C30.1787 19.7895 29.6622 19.5752 29.1233 19.5746ZM27.091 19.5746H24.286L27.091 18.0165V19.5746ZM16.2521 18.0165L19.0572 19.5746H16.2521V18.0165ZM16.2521 33.1233V25.6715H20.9941V33.8007H16.9295C16.7499 33.8005 16.5778 33.729 16.4508 33.602C16.3238 33.4751 16.2523 33.3029 16.2521 33.1233ZM27.091 33.1233C27.0908 33.3029 27.0194 33.4751 26.8924 33.602C26.7654 33.729 26.5932 33.8005 26.4136 33.8007H22.349V25.6715H27.091V33.1233ZM29.8008 23.6392C29.8005 23.8188 29.7291 23.991 29.6021 24.118C29.4751 24.245 29.3029 24.3164 29.1233 24.3167H14.2198C14.0402 24.3164 13.868 24.245 13.741 24.118C13.614 23.991 13.5426 23.8188 13.5424 23.6392V21.6069C13.5426 21.4273 13.614 21.2552 13.741 21.1282C13.868 21.0012 14.0402 20.9297 14.2198 20.9295H29.1233C29.3029 20.9297 29.4751 21.0012 29.6021 21.1282C29.7291 21.2552 29.8005 21.4273 29.8008 21.6069V23.6392Z" fill="#363062"/>
<circle cx="41.8031" cy="10.1937" r="8.19368" fill="#D8B9C3" stroke="white" stroke-width="4"/>
</svg>
