<svg width="40" height="40" viewBox="0 0 40 40" fill="none" xmlns="http://www.w3.org/2000/svg">
<path d="M30 36.6693C28.6111 36.6693 27.4306 36.1832 26.4583 35.2109C25.4861 34.2387 25 33.0582 25 31.6693C25 31.4748 25.0139 31.2732 25.0417 31.0643C25.0694 30.8554 25.1111 30.6682 25.1667 30.5026L13.4167 23.6693C12.9444 24.0859 12.4167 24.4126 11.8333 24.6493C11.25 24.8859 10.6389 25.0037 10 25.0026C8.61111 25.0026 7.43056 24.5165 6.45833 23.5443C5.48611 22.572 5 21.3915 5 20.0026C5 18.6137 5.48611 17.4332 6.45833 16.4609C7.43056 15.4887 8.61111 15.0026 10 15.0026C10.6389 15.0026 11.25 15.1209 11.8333 15.3576C12.4167 15.5943 12.9444 15.9204 13.4167 16.3359L25.1667 9.5026C25.1111 9.33594 25.0694 9.14872 25.0417 8.94094C25.0139 8.73316 25 8.53149 25 8.33594C25 6.94705 25.4861 5.76649 26.4583 4.79427C27.4306 3.82205 28.6111 3.33594 30 3.33594C31.3889 3.33594 32.5694 3.82205 33.5417 4.79427C34.5139 5.76649 35 6.94705 35 8.33594C35 9.72483 34.5139 10.9054 33.5417 11.8776C32.5694 12.8498 31.3889 13.3359 30 13.3359C29.3611 13.3359 28.75 13.2182 28.1667 12.9826C27.5833 12.747 27.0556 12.4204 26.5833 12.0026L14.8333 18.8359C14.8889 19.0026 14.9306 19.1904 14.9583 19.3993C14.9861 19.6082 15 19.8093 15 20.0026C15 20.197 14.9861 20.3987 14.9583 20.6076C14.9306 20.8165 14.8889 21.0037 14.8333 21.1693L26.5833 28.0026C27.0556 27.5859 27.5833 27.2598 28.1667 27.0243C28.75 26.7887 29.3611 26.6704 30 26.6693C31.3889 26.6693 32.5694 27.1554 33.5417 28.1276C34.5139 29.0998 35 30.2804 35 31.6693C35 33.0582 34.5139 34.2387 33.5417 35.2109C32.5694 36.1832 31.3889 36.6693 30 36.6693ZM30 10.0026C30.4722 10.0026 30.8683 9.84316 31.1883 9.52427C31.5083 9.20538 31.6678 8.80927 31.6667 8.33594C31.6667 7.86372 31.5067 7.46816 31.1867 7.14927C30.8667 6.83038 30.4711 6.67038 30 6.66927C29.5278 6.66927 29.1322 6.82927 28.8133 7.14927C28.4944 7.46927 28.3344 7.86483 28.3333 8.33594C28.3333 8.80816 28.4933 9.20427 28.8133 9.52427C29.1333 9.84427 29.5289 10.0037 30 10.0026ZM10 21.6693C10.4722 21.6693 10.8683 21.5093 11.1883 21.1893C11.5083 20.8693 11.6678 20.4737 11.6667 20.0026C11.6667 19.5304 11.5067 19.1348 11.1867 18.8159C10.8667 18.497 10.4711 18.337 10 18.3359C9.52778 18.3359 9.13222 18.4959 8.81333 18.8159C8.49444 19.1359 8.33444 19.5315 8.33333 20.0026C8.33333 20.4748 8.49333 20.8709 8.81333 21.1909C9.13333 21.5109 9.52889 21.6704 10 21.6693ZM30 33.3359C30.4722 33.3359 30.8683 33.1759 31.1883 32.8559C31.5083 32.5359 31.6678 32.1404 31.6667 31.6693C31.6667 31.197 31.5067 30.8015 31.1867 30.4826C30.8667 30.1637 30.4711 30.0037 30 30.0026C29.5278 30.0026 29.1322 30.1626 28.8133 30.4826C28.4944 30.8026 28.3344 31.1982 28.3333 31.6693C28.3333 32.1415 28.4933 32.5376 28.8133 32.8576C29.1333 33.1776 29.5289 33.337 30 33.3359Z" fill="#699BF7"/>
</svg>
